<?xml version="1.0" encoding="UTF-8"?>
<!DOCTYPE svg PUBLIC "-//W3C//DTD SVG 1.1//EN" "http://www.w3.org/Graphics/SVG/1.1/DTD/svg11.dtd">
<!-- Creator: CorelDRAW -->
<svg xmlns="http://www.w3.org/2000/svg" xml:space="preserve" width="65.9743mm" height="89.7453mm" version="1.1" style="shape-rendering:geometricPrecision; text-rendering:geometricPrecision; image-rendering:optimizeQuality; fill-rule:evenodd; clip-rule:evenodd"
viewBox="0 0 6455.67 8781.7"
 xmlns:xlink="http://www.w3.org/1999/xlink"
 xmlns:xodm="http://www.corel.com/coreldraw/odm/2003">
 <defs>
  <style type="text/css">
   <![CDATA[
    .fil0 {fill:#2B2A29;fill-rule:nonzero}
   ]]>
  </style>
 </defs>
 <g id="Layer_x0020_1">
  <metadata id="CorelCorpID_0Corel-Layer"/>
  <path class="fil0" d="M5729.17 789.66l-5333.13 1941.11c-74.02,26.94 -130.48,82.08 -161.77,149.18 -31.32,67.18 -37.26,145.99 -10.26,220.19l115.24 316.62 5874.63 -2138.19 -115.34 -316.86c-26.94,-74.02 -82.09,-130.49 -149.18,-161.78 -67.17,-31.32 -145.99,-37.26 -220.19,-10.26zm-1116 1768.08c57.19,0 103.57,46.37 103.57,103.57 0,57.19 -46.37,103.57 -103.57,103.57l-1878.98 0 -1792.71 652.49 384.79 5072.19c1.83,24.18 12.75,45.56 29.24,60.84 16.22,15.04 38.3,24.17 62.74,24.17l4303.8 0c24.44,0 46.52,-9.13 62.74,-24.17 16.49,-15.28 27.41,-36.66 29.24,-60.84l64.89 -855.42c4.24,-56.97 53.87,-99.71 110.84,-95.47 56.97,4.24 99.71,53.87 95.47,110.84l-64.89 855.42c-5.93,78.1 -41.3,147.21 -94.78,196.78 -53.74,49.82 -125.37,80 -203.51,80l-4303.8 0c-78.14,0 -149.77,-30.19 -203.51,-80 -53.48,-49.57 -88.85,-118.67 -94.78,-196.78l-380.38 -5014.07 -334.9 121.89c-47.67,17.34 -97.99,15.29 -142.1,-2.06 -3.89,-1.27 -7.75,-2.79 -11.56,-4.56 -46.56,-21.69 -84.98,-61.39 -104.06,-113.76l-117.14 -321.82c-46.62,-128.07 -36.72,-263.29 16.74,-377.96 53.5,-114.73 150.85,-209.31 279.07,-255.98l1099.79 -400.29 -218.18 -599.47c-1.52,-3.56 -2.85,-7.24 -3.97,-11.04 -53.58,-151.87 -41.32,-311.52 21.94,-447.2 63.23,-135.6 177.6,-247.6 328.3,-304.29 3.59,-1.56 7.3,-2.93 11.13,-4.09l416.35 -151.52c53.61,-19.43 112.85,8.28 132.29,61.89 19.43,53.61 -8.28,112.85 -61.89,132.29l-421.6 153.43c-99.4,36.23 -175.04,109.98 -216.87,199.68 -41.88,89.84 -49.73,195.37 -13.46,295.02l220.07 604.65 271.03 -98.64 -191.95 -510.59 -0.1 0.04 -0.34 -0.93c-0.92,-2.51 -1.74,-5.03 -2.46,-7.56 -15.93,-49.54 -11.17,-101.24 9.58,-145.5 21.61,-46.14 60.58,-84.26 111.42,-103.35l0.85 -0.3 -0.04 -0.1 6.24 -2.13 1834.13 -667.58c52.26,-19.01 106.93,-15.06 153.29,6.57 3.82,1.77 7.47,3.76 10.96,5.92 41.45,22.48 75.29,59.44 93.05,106.68l192.43 511.9 260.22 -94.71 -220.2 -605.01c-36.22,-99.42 -109.98,-175.09 -199.69,-216.92 -89.84,-41.88 -195.39,-49.72 -295.04,-13.45l-1021.64 371.85c-53.61,19.43 -112.85,-8.28 -132.29,-61.89 -19.43,-53.61 8.28,-112.85 61.89,-132.29l1013.92 -369.05c5.13,-2.34 10.48,-4.27 16.01,-5.75 151.06,-52.48 309.65,-40 444.53,22.88 134.88,62.89 246.41,176.39 303.38,325.87 2.39,5.12 4.36,10.46 5.89,15.99l217.34 597.13 1096.85 -399.22c128.07,-46.61 263.3,-36.72 377.96,16.74 114.73,53.5 209.31,150.86 255.98,279.08l117.14 321.81c18.99,52.2 15.04,107.21 -6.61,153.67 -21.69,46.55 -61.38,84.98 -113.76,104.06l-2986.21 1086.89 1309.9 0zm-2528.44 -661.4l1828.72 -665.6 -190.13 -505.75 -1828.73 665.61 190.14 505.74zm3001.93 1418.55l27.82 1.52c98.55,5.37 185.79,50.43 247.02,118.73 61.14,68.21 96.39,159.54 91.04,257.58l-218.96 4007.38c-5.38,98.53 -50.44,185.79 -118.74,247.02 -68.22,61.15 -159.54,96.38 -257.58,91.03l-22.56 -1.23 0 0.13c-5.07,0 -10.03,-0.37 -14.88,-1.07 -94.58,-7.69 -178.17,-52.02 -237.4,-118.09 -60.05,-67 -95.11,-156.28 -91.28,-252.31l-0.17 0c0,-4.54 0.29,-8.99 0.85,-13.36l218.52 -3999.29c5.38,-98.53 50.44,-185.79 118.74,-247.02 68.22,-61.15 159.54,-96.38 257.58,-91.03zm17.31 207.83l-27.82 -1.52c-41.87,-2.29 -80.7,12.6 -109.53,38.45 -28.75,25.76 -47.71,62.45 -49.97,103.8l-218.57 4000.28 0.02 1.84 -0.13 0.02 -0.28 5.19c-2.28,41.92 12.6,80.75 38.45,109.58 24.61,27.46 59.16,45.98 98.24,49.56l33.39 1.93c41.87,2.29 80.7,-12.6 109.53,-38.45 28.75,-25.76 47.71,-62.45 49.97,-103.8l218.96 -4007.38c2.29,-41.87 -12.61,-80.7 -38.46,-109.53 -25.76,-28.75 -62.45,-47.71 -103.8,-49.96zm-1914.64 2309.46c0,-57.19 46.37,-103.57 103.57,-103.57 57.19,0 103.57,46.37 103.57,103.57l0 1819.14c0,45.39 18.67,86.77 48.71,116.81 30.04,30.04 71.41,48.7 116.81,48.7 45.41,0 86.77,-18.66 116.82,-48.7 30.04,-30.04 48.7,-71.41 48.7,-116.81l0 -3947.64c0,-45.4 -18.66,-86.77 -48.7,-116.81 -30.05,-30.04 -71.41,-48.7 -116.82,-48.7 -45.41,0 -86.78,18.67 -116.82,48.7 -30.04,30.04 -48.7,71.41 -48.7,116.81l0 1524.6c0,57.19 -46.37,103.57 -103.57,103.57 -57.19,0 -103.57,-46.37 -103.57,-103.57l0 -1524.6c0,-102.58 41.9,-195.77 109.39,-263.26 67.5,-67.49 160.7,-109.39 263.27,-109.39 102.57,0 195.77,41.9 263.27,109.39 67.49,67.49 109.39,160.68 109.39,263.26l0 3947.64c0,102.58 -41.9,195.77 -109.39,263.26 -67.5,67.49 -160.7,109.39 -263.27,109.39 -102.58,0 -195.77,-41.9 -263.26,-109.39 -67.49,-67.49 -109.4,-160.69 -109.4,-263.26l0 -1819.14zm-1141.5 -2310.97l-27.82 1.52c-41.35,2.25 -78.04,21.21 -103.8,49.96 -25.84,28.84 -40.75,67.66 -38.46,109.53l218.96 4007.38c2.26,41.35 21.22,78.04 49.97,103.8 28.84,25.84 67.66,40.74 109.53,38.45 11.02,-0.6 22.44,-0.9 33.39,-1.93 39.08,-3.58 73.63,-22.1 98.24,-49.56 25.84,-28.84 40.73,-67.66 38.45,-109.52l-0.28 -5.25 -0.13 0 0.02 -1.86 -218.57 -4000.28c-2.26,-41.35 -21.22,-78.04 -49.97,-103.8 -28.84,-25.84 -67.66,-40.74 -109.53,-38.45zm-38.33 -204.79l27.82 -1.52c98.05,-5.35 189.36,29.88 257.58,91.03 68.3,61.23 113.36,148.49 118.74,247.02l218.52 3999.29c0.56,4.36 0.85,8.82 0.85,13.34l-0.17 0.02c3.84,96.03 -31.22,185.31 -91.28,252.31 -59.23,66.07 -142.81,110.4 -237.4,118.09 -4.85,0.69 -9.81,1.07 -14.86,1.07l-0.02 -0.13 -22.56 1.23c-98.05,5.35 -189.36,-29.88 -257.58,-91.03 -68.3,-61.23 -113.36,-148.49 -118.74,-247.02l-218.96 -4007.38c-5.35,-98.05 29.9,-189.37 91.04,-257.58 61.23,-68.3 148.47,-113.36 247.02,-118.73zm4125.12 3682.08c-4.24,56.97 -53.87,99.71 -110.84,95.47 -56.97,-4.24 -99.71,-53.87 -95.47,-110.84l320 -4218.25 -1037.05 0c-57.19,0 -103.57,-46.37 -103.57,-103.57 0,-57.19 46.37,-103.57 103.57,-103.57l1043.1 0c28.03,0 55,5.65 80.53,16.8 21.82,9.53 41.77,23.1 59.61,40.64 2.5,2.22 4.93,4.57 7.26,7.07 19.35,20.86 33.64,44.51 42.75,70.55 9.12,26.18 12.68,53.45 10.57,81.43l-320.46 4224.25z"/>
 </g>
</svg>
