<?xml version="1.0" encoding="UTF-8"?>
<!DOCTYPE svg PUBLIC "-//W3C//DTD SVG 1.1//EN" "http://www.w3.org/Graphics/SVG/1.1/DTD/svg11.dtd">
<!-- Creator: CorelDRAW -->
<svg xmlns="http://www.w3.org/2000/svg" xml:space="preserve" width="165.727mm" height="209.971mm" version="1.1" style="shape-rendering:geometricPrecision; text-rendering:geometricPrecision; image-rendering:optimizeQuality; fill-rule:evenodd; clip-rule:evenodd"
viewBox="0 0 15318.56 19408.11"
 xmlns:xlink="http://www.w3.org/1999/xlink"
 xmlns:xodm="http://www.corel.com/coreldraw/odm/2003">
 <defs>
  <style type="text/css">
   <![CDATA[
    .fil0 {fill:#FEFEFE}
   ]]>
  </style>
 </defs>
 <g id="Layer_x0020_1">
  <metadata id="CorelCorpID_0Corel-Layer"/>
  <path class="fil0" d="M957.99 6351.39l1221.67 12235.79c0.83,8.29 1.23,15.39 1.34,23.72 6.11,442.41 379.12,797.21 836.32,797.21l9268.84 0c457.2,0 830.22,-354.8 836.33,-797.21 0.11,-8.33 0.51,-15.43 1.34,-23.72l1221.67 -12235.78c8.07,-80.8 -15.84,-153.43 -70.33,-213.64 -54.49,-60.2 -124.39,-91.21 -205.59,-91.21l-12835.67 0c-81.2,0 -151.09,31.01 -205.58,91.21 -54.5,60.2 -78.41,132.83 -70.34,213.63zm7091.44 10694.27l-756.25 0c-152.73,0 -277.3,-124.57 -277.3,-277.3l0 -8101.63c0,-152.73 124.57,-277.3 277.3,-277.3l756.25 0c152.73,0 277.3,124.57 277.3,277.3l0 8101.63c0,152.73 -124.57,277.3 -277.3,277.3zm2482.02 0l-750.74 0c-83.19,0 -154.79,-32.65 -209.34,-95.45 -54.55,-62.8 -76.87,-138.27 -65.23,-220.64l1144.46 -8101.63c19.46,-137.71 135.49,-238.51 274.57,-238.51l750.74 0c83.19,0 154.79,32.65 209.34,95.45 54.55,62.8 76.87,138.27 65.23,220.64l-1144.46 8101.63c-19.46,137.71 -135.49,238.51 -274.57,238.51zm-4969.56 0l-750.74 0c-139.08,0 -255.11,-100.8 -274.57,-238.51l-1144.46 -8101.63c-11.64,-82.37 10.68,-157.84 65.23,-220.64 54.55,-62.8 126.15,-95.45 209.34,-95.45l750.74 0c139.08,0 255.11,100.8 274.57,238.51l1144.45 8101.63c11.64,82.37 -10.68,157.84 -65.23,220.64 -54.55,62.8 -126.15,95.45 -209.34,95.45z"/>
  <path class="fil0" d="M13975.41 1372.42l-3458.54 843.25c-148.38,36.18 -298.91,-55.34 -335.09,-203.72l-338.67 -1389.05c-113.54,-465.69 -747.09,-710.2 -1222.3,-594.34l-3676.85 896.48c-475.2,115.85 -1069.38,543.91 -956.42,1007.23l340.61 1396.98c35.49,145.55 -51.26,293.17 -195.7,333l-3446.62 950.29c-2.39,0.67 -4.46,1.17 -6.87,1.77 -474.1,117.75 -767.93,586.31 -654.7,1050.72l268.87 1102.74c36.18,148.38 186.7,239.9 335.09,203.72l14478.71 -3530.15c148.38,-36.18 239.9,-186.7 203.72,-335.09l-268.87 -1102.74c-112.07,-464.8 -588.8,-747.54 -1066.38,-631.1l0 0zm-8660.68 1274.63c-90.37,-370.65 253.34,-772.89 766.55,-898.02l1858.04 -453.02c513.21,-125.13 1002.59,75.24 1092.67,444.71l126.94 520.62c36.18,148.38 -55.34,298.91 -203.71,335.09l-3179.65 775.26c-148.38,36.18 -298.91,-55.34 -335.09,-203.72l-126.94 -520.62 1.19 -0.29z"/>
 </g>
</svg>
