<?xml version="1.0" encoding="UTF-8"?>
<!DOCTYPE svg PUBLIC "-//W3C//DTD SVG 1.1//EN" "http://www.w3.org/Graphics/SVG/1.1/DTD/svg11.dtd">
<!-- Creator: CorelDRAW -->
<svg xmlns="http://www.w3.org/2000/svg" xml:space="preserve" width="65.3164mm" height="60mm" version="1.1" style="shape-rendering:geometricPrecision; text-rendering:geometricPrecision; fill-rule:evenodd; clip-rule:evenodd"
viewBox="0 0 3055.04 2806.37"
 xmlns:xlink="http://www.w3.org/1999/xlink"
 xmlns:xodm="http://www.corel.com/coreldraw/odm/2003">
 <defs>
  <style type="text/css">
   <![CDATA[
    .fil0 {fill:#fff;fill-rule:nonzero}
   ]]>
  </style>
 </defs>
 <g id="Layer_x0020_1">
  <metadata id="CorelCorpID_0Corel-Layer"/>
  <path class="fil0" d="M2898.72 1689.34c-86.33,0 -156.39,69.98 -156.39,156.38l0 525.64c0,67.5 -54.73,122.16 -122.16,122.16l-2185.24 0.02c-67.49,0 -122.16,-54.73 -122.16,-122.16l0 -525.64c0,-86.33 -69.99,-156.39 -156.38,-156.39 -86.4,0 -156.39,69.99 -156.39,156.39l0 525.7c0,240.23 194.77,434.93 434.93,434.93l2185.11 0c240.23,0 434.99,-194.77 434.99,-434.99l0 -525.64c0.07,-86.36 -69.92,-156.4 -156.32,-156.4z"/>
  <path class="fil0" d="M1414.18 2195.17c28.94,32.07 70.15,50.42 113.37,50.42 43.25,0 84.4,-18.34 113.41,-50.42l679.98 -753.51c40.42,-44.84 50.7,-109.22 26.17,-164.38 -24.52,-55.18 -79.25,-90.71 -139.58,-90.71l-321.07 0 0 -404.91c0,-84.36 -68.4,-152.76 -152.76,-152.76l-412.44 0c-84.36,0 -152.76,68.4 -152.76,152.76l0 404.91 -321.07 0c-60.35,0 -115.06,35.53 -139.58,90.71 -24.52,55.18 -14.24,119.61 26.17,164.38l680.16 753.51z"/>
  <path class="fil0" d="M1321.31 444.41l412.47 0c84.36,0 152.76,-68.4 152.76,-152.76l0 -138.9c0,-84.36 -68.4,-152.76 -152.76,-152.76l-412.47 0c-84.36,0 -152.76,68.4 -152.76,152.76l0 138.9c0,84.36 68.41,152.76 152.76,152.76z"/>
 </g>
</svg>
