<?xml version="1.0" encoding="UTF-8"?>
<!DOCTYPE svg PUBLIC "-//W3C//DTD SVG 1.1//EN" "http://www.w3.org/Graphics/SVG/1.1/DTD/svg11.dtd">
<!-- Creator: CorelDRAW -->
<svg xmlns="http://www.w3.org/2000/svg" xml:space="preserve" width="59.9996mm" height="60mm" version="1.1" style="shape-rendering:geometricPrecision; text-rendering:geometricPrecision; image-rendering:optimizeQuality; fill-rule:evenodd; clip-rule:evenodd"
viewBox="0 0 5985.73 5985.77"
 xmlns:xlink="http://www.w3.org/1999/xlink"
 xmlns:xodm="http://www.corel.com/coreldraw/odm/2003">
 <defs>
  <style type="text/css">
   <![CDATA[
    .fil0 {fill:#fff;fill-rule:nonzero}
   ]]>
  </style>
 </defs>
 <g id="Layer_x0020_1">
  <metadata id="CorelCorpID_0Corel-Layer"/>
  <path class="fil0" d="M5819.12 1419.14c-114.51,-282.38 -282.66,-535.61 -499.75,-752.74 -217.12,-217.12 -470.4,-385.27 -752.78,-499.78 -272.62,-110.57 -560.62,-166.61 -856.04,-166.61 -295.38,0 -583.41,56.09 -856.04,166.61 -282.39,114.51 -535.62,282.66 -752.74,499.78 -217.13,217.13 -385.28,470.4 -499.79,752.74 -110.56,272.63 -166.6,560.66 -166.6,856.05 0,295.41 56.05,583.4 166.6,856.03 87.29,215.28 205.79,413.61 353.4,591.94l-316.35 316.31 307.22 307.27 316.36 -316.35c178.3,147.57 376.62,266.07 591.9,353.36 272.62,110.57 560.66,166.61 856.04,166.61 295.42,0 583.4,-56.05 856.04,-166.61 282.39,-114.51 535.66,-282.66 752.78,-499.74 217.09,-217.13 385.24,-470.4 499.75,-752.79 110.56,-272.62 166.6,-560.62 166.6,-856.03 0.01,-295.39 -56.05,-583.41 -166.6,-856.05zm-1557.44 856.05c0,304.36 -246.75,551.11 -551.11,551.11 -304.4,0 -551.15,-246.75 -551.15,-551.11 0,-304.4 246.75,-551.11 551.15,-551.11 86.94,0 169.16,20.12 242.3,56.01 -11.41,26.67 -17.74,56.08 -17.74,86.9 0,122.26 99.1,221.36 221.35,221.36 23.97,0 47.05,-3.8 68.67,-10.88 23.58,61.38 36.52,128.03 36.52,197.72zm867.35 -81.86c-118.7,-239.47 -534.47,-921.66 -1418.46,-921.66 -884,0 -1299.8,682.19 -1418.51,921.66 -25.6,51.6 -25.6,112.11 0,163.75 118.71,239.43 534.51,921.62 1418.51,921.62 883.99,0 1299.76,-682.19 1418.46,-921.62 25.61,-51.64 25.61,-112.15 0,-163.75zm-1418.46 781.36c-386.33,0 -699.51,-313.18 -699.51,-699.51 0,-386.33 313.18,-699.51 699.51,-699.51 126.77,0 245.69,33.75 348.2,92.67 29.48,-14.51 62.66,-22.69 97.72,-22.69 122.22,0 221.32,99.1 221.32,221.32 0,42.04 -11.73,81.33 -32.07,114.83 41.29,89.22 64.34,188.61 64.34,293.37 0,386.33 -313.19,699.51 -699.51,699.51zm-2307.71 1036.5l571.68 571.72 -1284.45 1284.45c-78.92,78.95 -182.41,118.42 -285.86,118.42 -103.44,0 -206.94,-39.46 -285.85,-118.42 -157.84,-157.88 -157.84,-413.85 0,-571.68l1284.48 -1284.49zm4013.59 -1043.22c-92.5,228.19 -228.58,432.99 -404.35,608.8 -175.77,175.77 -380.59,311.81 -608.77,404.36 -220.53,89.39 -453.61,134.73 -692.78,134.73 -239.17,0 -472.22,-45.34 -692.74,-134.73 -228.19,-92.55 -433.04,-228.59 -608.81,-404.36 -175.77,-175.81 -311.81,-380.62 -404.35,-608.8 -89.44,-220.54 -134.78,-453.62 -134.78,-692.79 0,-239.17 45.35,-472.22 134.78,-692.74 92.54,-228.19 228.58,-433.03 404.35,-608.8 175.77,-175.77 380.63,-311.81 608.81,-404.36 220.53,-89.43 453.57,-134.77 692.74,-134.77 239.17,0 472.26,45.34 692.78,134.77 228.19,92.55 432.99,228.59 608.77,404.36 175.77,175.77 311.85,380.62 404.35,608.8 89.43,220.54 134.78,453.58 134.78,692.74 0,239.17 -45.35,472.26 -134.78,692.79z"/>
 </g>
</svg>
