<?xml version="1.0" encoding="utf-8"?>
<!-- Generator: Adobe Illustrator 27.0.0, SVG Export Plug-In . SVG Version: 6.00 Build 0)  -->
<svg version="1.1" id="Layer_1" xmlns="http://www.w3.org/2000/svg" xmlns:xlink="http://www.w3.org/1999/xlink" x="0px" y="0px"
	 viewBox="0 0 283.46 283.46" style="enable-background:new 0 0 283.46 283.46;" xml:space="preserve">
<style type="text/css">
	.st0{fill:#FFFFFF;}
	.st1{fill:#595670;}
	.st2{fill:#ACA9BD;}
	.st3{display:none;}
	.st4{display:inline;fill:#595670;}
	.st5{display:inline;opacity:0.05;fill:#595670;}
</style>
<g>
	<path class="st0" d="M228.21,135.5L180.05,20.53c-0.03-0.08-0.07-0.15-0.11-0.23c-0.23-0.53-0.49-1.04-0.79-1.54
		c-0.03-0.04-0.05-0.09-0.08-0.14c-0.1-0.16-0.17-0.32-0.27-0.48c-2.62-3.97-7.07-6.36-11.82-6.36H68.33
		c-4.75,0-9.19,2.38-11.81,6.34c-2.62,3.96-3.09,8.97-1.24,13.35l46.8,110.68L55.29,251.94c-1.87,4.38-1.41,9.4,1.21,13.37
		s7.07,6.36,11.82,6.36h97.88c5.71,0,10.86-3.42,13.07-8.68l48.93-116.52C229.68,142.96,229.68,139.01,228.21,135.5z"/>
	<polygon class="st1" points="166.98,25.96 68.33,25.96 117.46,142.16 	"/>
	<polygon class="st2" points="117.46,142.21 68.33,257.5 166.2,257.5 215.14,140.98 166.98,26.01 	"/>
</g>
</svg>
